<svg width="400" height="225" xmlns="http://www.w3.org/2000/svg">
  <defs>
    <linearGradient id="bg" x1="0%" y1="0%" x2="100%" y2="100%">
      <stop offset="0%" style="stop-color:#faf8ef;stop-opacity:1" />
      <stop offset="100%" style="stop-color:#f2b179;stop-opacity:1" />
    </linearGradient>
  </defs>
  
  <!-- Background -->
  <rect width="400" height="225" fill="url(#bg)"/>
  
  <!-- Game board -->
  <rect x="50" y="37.5" width="150" height="150" rx="8" fill="#bbada0"/>
  
  <!-- Tiles -->
  <rect x="60" y="47.5" width="30" height="30" rx="4" fill="#cdc1b4"/>
  <rect x="100" y="47.5" width="30" height="30" rx="4" fill="#eee4da"/>
  <rect x="140" y="47.5" width="30" height="30" rx="4" fill="#ede0c8"/>
  <rect x="180" y="47.5" width="30" height="30" rx="4" fill="#f2b179"/>
  
  <rect x="60" y="87.5" width="30" height="30" rx="4" fill="#f59563"/>
  <rect x="100" y="87.5" width="30" height="30" rx="4" fill="#f67c5f"/>
  <rect x="140" y="87.5" width="30" height="30" rx="4" fill="#f65e3b"/>
  <rect x="180" y="87.5" width="30" height="30" rx="4" fill="#edcf72"/>
  
  <rect x="60" y="127.5" width="30" height="30" rx="4" fill="#edcc61"/>
  <rect x="100" y="127.5" width="30" height="30" rx="4" fill="#edc850"/>
  <rect x="140" y="127.5" width="30" height="30" rx="4" fill="#edc53f"/>
  <rect x="180" y="127.5" width="30" height="30" rx="4" fill="#edc22e"/>
  
  <rect x="60" y="167.5" width="30" height="30" rx="4" fill="#cdc1b4"/>
  <rect x="100" y="167.5" width="30" height="30" rx="4" fill="#cdc1b4"/>
  <rect x="140" y="167.5" width="30" height="30" rx="4" fill="#cdc1b4"/>
  <rect x="180" y="167.5" width="30" height="30" rx="4" fill="#cdc1b4"/>
  
  <!-- Numbers -->
  <text x="115" y="67" font-family="Arial, sans-serif" font-size="12" font-weight="bold" fill="#776e65" text-anchor="middle">2</text>
  <text x="155" y="67" font-family="Arial, sans-serif" font-size="12" font-weight="bold" fill="#776e65" text-anchor="middle">4</text>
  <text x="195" y="67" font-family="Arial, sans-serif" font-size="12" font-weight="bold" fill="#f9f6f2" text-anchor="middle">8</text>
  
  <text x="75" y="107" font-family="Arial, sans-serif" font-size="11" font-weight="bold" fill="#f9f6f2" text-anchor="middle">16</text>
  <text x="115" y="107" font-family="Arial, sans-serif" font-size="11" font-weight="bold" fill="#f9f6f2" text-anchor="middle">32</text>
  <text x="155" y="107" font-family="Arial, sans-serif" font-size="11" font-weight="bold" fill="#f9f6f2" text-anchor="middle">64</text>
  <text x="195" y="107" font-family="Arial, sans-serif" font-size="10" font-weight="bold" fill="#f9f6f2" text-anchor="middle">128</text>
  
  <text x="75" y="147" font-family="Arial, sans-serif" font-size="10" font-weight="bold" fill="#f9f6f2" text-anchor="middle">256</text>
  <text x="115" y="147" font-family="Arial, sans-serif" font-size="10" font-weight="bold" fill="#f9f6f2" text-anchor="middle">512</text>
  <text x="155" y="147" font-family="Arial, sans-serif" font-size="9" font-weight="bold" fill="#f9f6f2" text-anchor="middle">1024</text>
  <text x="195" y="147" font-family="Arial, sans-serif" font-size="9" font-weight="bold" fill="#f9f6f2" text-anchor="middle">2048</text>
  
  <!-- Title -->
  <text x="280" y="80" font-family="Arial, sans-serif" font-size="48" font-weight="bold" fill="#776e65">2048</text>
  <text x="280" y="110" font-family="Arial, sans-serif" font-size="16" fill="#776e65">Number Puzzle</text>
  <text x="280" y="130" font-family="Arial, sans-serif" font-size="16" fill="#776e65">Game</text>
</svg>